<?xml version="1.0" encoding="UTF-8" ?>
<!DOCTYPE svg PUBLIC "-//W3C//DTD SVG 1.1//EN" "http://www.w3.org/Graphics/SVG/1.1/DTD/svg11.dtd">
<svg width="625pt" height="625pt" viewBox="0 0 625 625" version="1.1" xmlns="http://www.w3.org/2000/svg">
<g id="#ffffffff">
</g>
<g id="#004288ff">
<path fill="#004288" opacity="1.00" d=" M 324.06 56.69 C 332.99 54.11 342.89 51.97 351.89 55.44 C 362.28 59.71 370.65 68.46 375.17 78.66 C 369.09 78.23 362.91 77.97 356.92 79.27 C 346.35 81.28 336.59 86.14 327.41 91.60 C 307.70 103.61 290.57 119.21 272.55 133.50 C 257.81 145.04 242.51 157.21 223.99 161.85 C 216.13 163.30 207.63 163.26 200.28 159.75 C 191.95 155.96 185.36 149.26 180.01 141.99 C 179.22 141.13 178.43 139.54 176.99 140.12 C 170.97 141.00 165.29 143.40 159.89 146.12 C 143.08 155.20 129.04 168.33 114.14 180.10 C 104.95 187.18 95.57 194.50 84.43 198.21 C 76.82 200.79 67.95 200.52 61.06 196.09 C 54.00 191.68 48.57 184.86 45.01 177.40 C 50.33 180.51 57.05 179.66 62.78 178.16 C 72.02 175.50 80.37 170.57 88.42 165.42 C 102.17 156.36 115.02 146.02 128.41 136.44 C 140.68 128.37 154.82 120.28 170.09 122.65 C 176.45 124.62 181.81 129.14 185.62 134.53 C 196.63 133.98 207.14 130.05 216.84 125.03 C 236.31 114.84 253.66 101.21 271.32 88.25 C 287.57 75.76 304.36 63.17 324.06 56.69 Z" />
<path fill="#004288" opacity="1.00" d=" M 383.01 110.03 C 399.58 101.75 418.32 95.74 437.00 98.91 C 448.02 102.15 457.52 109.51 464.61 118.42 C 468.08 122.69 471.53 127.26 472.95 132.67 C 472.01 132.45 470.13 132.02 469.20 131.80 C 460.40 131.00 451.51 132.15 442.98 134.31 C 419.85 140.66 399.59 154.19 380.62 168.44 C 362.58 182.06 345.49 196.89 327.80 210.95 C 313.18 222.38 298.19 233.64 281.35 241.62 C 268.11 247.78 252.92 251.78 238.44 247.92 C 221.94 243.82 209.33 231.04 200.05 217.41 C 188.29 219.15 177.27 224.04 167.15 230.13 C 137.79 247.75 114.44 273.65 85.07 291.25 C 73.08 298.42 58.43 303.56 44.50 299.27 C 31.05 294.76 21.71 283.00 14.89 271.10 C 21.46 272.29 28.27 273.38 34.88 271.80 C 40.50 270.61 45.98 268.79 51.20 266.37 C 69.37 258.07 85.42 245.99 101.47 234.26 C 119.48 220.98 136.86 206.23 157.85 197.80 C 167.87 194.24 178.95 191.09 189.49 194.15 C 197.72 196.79 204.20 202.99 209.44 209.65 C 219.84 210.22 229.96 206.98 239.55 203.32 C 255.63 196.71 270.51 187.57 284.87 177.86 C 302.01 166.17 318.58 153.67 335.16 141.21 C 350.32 129.69 365.83 118.39 383.01 110.03 Z" />
<path fill="#004288" opacity="1.00" d=" M 461.03 180.04 C 478.61 169.90 497.59 161.12 517.96 158.76 C 525.51 158.29 533.32 158.02 540.58 160.54 C 554.59 165.80 565.97 176.46 574.18 188.77 C 575.99 191.83 578.12 194.85 578.79 198.41 C 575.33 197.25 571.64 197.40 568.05 197.35 C 547.40 196.83 527.69 204.83 509.90 214.62 C 478.39 232.36 451.28 256.54 423.28 279.14 C 404.23 294.50 384.98 309.98 363.18 321.32 C 353.09 326.61 342.23 330.35 330.99 332.25 C 318.62 333.52 305.73 331.64 294.91 325.24 C 278.38 315.94 267.04 300.07 257.37 284.20 C 262.50 285.62 267.76 286.37 273.04 286.93 C 278.03 288.04 283.03 286.60 288.01 286.18 C 303.70 283.44 318.37 276.72 332.26 269.14 C 358.05 254.70 381.78 236.94 405.46 219.35 C 423.70 205.86 441.37 191.47 461.03 180.04 Z" />
</g>
<g id="#47952aff">
<path fill="#47952a" opacity="1.00" d=" M 372.99 66.13 C 377.03 67.22 380.34 69.94 383.50 72.57 C 388.97 77.57 394.06 83.32 396.72 90.35 C 377.15 87.51 358.32 96.12 342.18 106.33 C 322.40 119.09 304.79 134.81 286.51 149.56 C 272.96 160.28 259.15 171.19 243.01 177.77 C 231.38 182.44 217.52 183.65 206.16 177.60 C 196.50 172.64 189.52 164.07 183.22 155.48 C 169.34 154.35 156.82 162.05 146.23 170.15 C 132.45 180.57 120.37 193.09 106.26 203.09 C 100.16 207.37 93.43 211.08 85.98 212.26 C 76.41 213.69 66.68 207.62 62.46 199.20 C 65.87 201.41 68.97 204.34 73.02 205.33 C 81.64 207.27 90.35 204.16 97.56 199.52 C 118.15 186.52 133.98 167.14 155.28 155.14 C 162.88 150.82 171.57 148.33 180.36 149.22 C 188.31 160.45 199.63 170.95 214.01 172.07 C 227.39 173.18 240.15 167.15 251.35 160.40 C 282.24 140.95 307.17 113.37 338.74 94.90 C 347.87 89.64 357.66 85.26 368.10 83.39 C 373.84 81.96 379.80 82.64 385.65 82.55 C 382.55 76.28 377.96 70.98 372.99 66.13 Z" />
<path fill="#47952a" opacity="1.00" d=" M 470.15 114.99 C 479.75 118.31 487.26 125.73 493.81 133.24 C 497.89 137.77 500.78 143.15 503.62 148.51 C 498.39 148.90 493.24 147.01 488.06 148.12 C 481.19 148.42 474.45 149.74 467.85 151.62 C 444.04 158.74 423.17 172.91 403.51 187.72 C 378.94 206.26 356.16 227.06 331.44 245.41 C 315.84 256.68 299.51 267.68 280.85 273.15 C 267.39 276.90 252.30 276.89 239.64 270.43 C 225.84 263.80 215.58 251.88 207.09 239.46 C 190.75 237.43 175.37 245.27 162.35 254.31 C 139.20 270.16 120.26 291.33 96.99 307.01 C 89.63 311.79 81.74 316.43 72.91 317.63 C 67.16 317.83 61.05 318.50 55.70 315.91 C 47.28 312.32 41.31 305.01 36.16 297.73 C 40.56 300.75 44.16 304.96 49.19 307.02 C 56.36 310.47 64.76 310.29 72.20 307.78 C 84.06 303.94 94.21 296.41 103.94 288.85 C 121.42 274.95 137.40 259.21 155.72 246.38 C 168.73 237.40 183.78 229.17 200.12 230.35 C 202.55 229.93 203.63 232.44 204.97 233.94 C 214.25 246.31 226.62 257.42 242.00 261.12 C 258.45 265.28 275.49 259.83 290.17 252.42 C 314.06 239.95 334.59 222.24 355.38 205.34 C 377.79 186.85 400.11 167.87 425.54 153.57 C 440.74 145.28 457.39 138.35 474.96 138.15 C 479.28 137.97 483.60 138.33 487.91 138.54 C 484.47 129.10 477.14 121.90 470.15 114.99 Z" />
<path fill="#47952a" opacity="1.00" d=" M 577.22 182.33 C 590.13 189.91 600.65 201.74 606.70 215.43 C 590.93 213.20 574.80 215.86 560.01 221.53 C 539.88 229.08 521.78 241.02 504.54 253.67 C 474.16 276.05 446.55 301.97 415.63 323.62 C 400.31 334.08 384.05 343.91 365.84 348.28 C 351.57 351.55 335.91 350.42 323.09 342.97 C 318.55 340.48 314.40 337.37 310.42 334.07 C 310.51 333.93 310.67 333.67 310.75 333.53 C 322.20 340.85 336.34 342.92 349.63 340.88 C 369.28 337.55 386.81 327.15 403.13 316.20 C 438.26 291.76 469.14 261.77 504.37 237.44 C 521.77 225.50 540.42 214.78 560.93 209.26 C 572.03 206.28 583.59 205.71 595.00 206.72 C 591.38 197.10 583.90 189.85 577.22 182.33 Z" />
</g>
<g id="#012d54ff">
<path fill="#012d54" opacity="1.00" d=" M 254.41 422.33 C 256.86 422.45 259.25 423.01 261.56 423.82 C 255.19 436.16 249.82 449.00 243.49 461.37 C 241.21 461.29 238.93 461.28 236.66 461.28 C 231.55 448.80 225.72 436.59 220.96 424.00 C 223.10 422.63 225.64 422.48 228.11 422.43 C 231.92 432.76 236.56 442.76 240.59 453.00 C 245.46 442.90 249.92 432.60 254.41 422.33 Z" />
<path fill="#012d54" opacity="1.00" d=" M 102.43 423.38 C 104.92 423.30 107.41 423.28 109.90 423.26 C 110.36 431.20 109.68 439.18 110.28 447.12 C 110.66 450.68 112.71 454.48 116.38 455.47 C 119.37 456.76 122.84 456.06 125.53 454.40 C 128.34 452.23 129.28 448.42 129.42 445.04 C 129.46 437.80 129.41 430.57 129.40 423.34 C 131.84 423.31 134.27 423.29 136.70 423.29 C 136.51 432.21 137.14 441.16 136.25 450.05 C 134.57 456.32 129.37 461.01 123.07 462.36 C 117.91 462.67 112.29 462.08 108.19 458.61 C 104.97 455.99 103.92 451.83 102.71 448.05 C 102.25 439.83 102.66 431.60 102.43 423.38 Z" />
<path fill="#012d54" opacity="1.00" d=" M 180.33 423.32 C 182.46 423.30 184.58 423.29 186.71 423.29 C 186.63 435.98 186.81 448.68 186.61 461.37 C 184.38 461.30 182.15 461.27 179.93 461.22 C 173.18 451.89 166.89 442.22 159.82 433.13 C 159.46 442.52 159.84 451.93 159.60 461.33 C 157.27 461.29 154.95 461.28 152.62 461.26 C 152.68 448.63 152.67 436.00 152.61 423.37 C 155.74 423.28 158.87 423.25 162.00 423.42 C 167.42 431.50 173.19 439.34 178.78 447.30 C 179.12 447.51 179.81 447.93 180.16 448.14 C 180.58 439.88 180.20 431.59 180.33 423.32 Z" />
<path fill="#012d54" opacity="1.00" d=" M 270.52 423.40 C 279.19 423.23 287.87 423.28 296.54 423.36 C 296.50 425.16 296.48 426.98 296.45 428.80 C 290.41 429.22 284.38 428.66 278.35 428.99 C 278.29 432.18 278.28 435.37 278.37 438.56 C 283.51 438.46 288.65 438.57 293.80 438.45 C 294.28 440.46 294.00 442.50 293.61 444.51 C 288.52 444.36 283.43 444.49 278.34 444.39 C 278.28 448.05 278.25 451.70 278.40 455.36 C 285.18 455.25 291.96 455.39 298.74 455.28 C 298.78 457.28 298.82 459.27 298.86 461.28 C 289.42 461.26 279.98 461.30 270.54 461.27 C 270.57 448.64 270.61 436.02 270.52 423.40 Z" />
<path fill="#012d54" opacity="1.00" d=" M 352.46 428.51 C 354.31 425.81 356.97 423.93 359.92 422.59 C 366.73 421.78 373.91 421.76 379.95 425.46 C 379.07 427.39 378.12 429.28 377.15 431.17 C 372.16 428.59 365.82 426.15 360.66 429.66 C 358.50 431.20 359.53 434.30 361.59 435.38 C 367.28 438.83 374.54 439.66 379.30 444.63 C 381.74 447.12 381.77 450.84 381.16 454.06 C 379.38 459.96 372.75 462.62 367.07 462.54 C 361.19 462.92 355.37 461.18 350.28 458.32 C 351.15 456.28 352.00 454.23 352.85 452.19 C 358.54 455.17 365.75 458.31 371.89 454.71 C 374.77 453.36 374.18 448.87 371.42 447.69 C 365.01 444.16 356.81 443.00 352.54 436.38 C 352.37 433.75 352.33 431.13 352.46 428.51 Z" />
<path fill="#012d54" opacity="1.00" d=" M 410.29 423.33 C 422.38 423.30 434.47 423.24 446.55 423.36 C 446.50 425.39 446.47 427.42 446.43 429.45 C 441.66 429.42 436.88 429.44 432.11 429.40 C 431.12 439.99 432.02 450.69 431.64 461.33 C 429.25 461.28 426.85 461.28 424.47 461.30 C 424.37 450.69 424.45 440.08 424.43 429.47 C 419.74 429.41 415.05 429.42 410.37 429.45 C 410.33 427.41 410.30 425.37 410.29 423.33 Z" />
<path fill="#012d54" opacity="1.00" d=" M 463.91 423.25 C 466.27 423.29 468.64 423.29 471.01 423.29 C 476.24 435.59 480.81 448.18 486.33 460.36 C 484.01 460.96 481.66 461.51 479.43 462.40 C 477.46 459.35 476.39 455.86 475.20 452.47 C 469.44 452.30 463.68 452.27 457.93 452.48 C 456.87 455.62 455.52 458.65 454.34 461.75 C 451.98 461.54 449.62 461.33 447.27 461.16 C 452.36 448.34 458.30 435.85 463.91 423.25 M 460.92 446.26 C 464.87 446.28 468.82 446.28 472.77 446.26 C 470.71 441.27 468.80 436.22 467.01 431.13 C 464.82 436.10 462.63 441.09 460.92 446.26 Z" />
<path fill="#012d54" opacity="1.00" d=" M 495.84 425.81 C 500.92 420.90 508.61 422.20 515.00 422.64 C 516.95 423.63 518.96 424.52 520.95 425.45 C 520.22 427.35 519.34 429.19 518.45 431.02 C 515.07 429.55 511.56 428.45 507.97 427.65 C 505.44 428.42 502.15 428.35 500.74 431.03 C 499.80 433.42 502.23 435.29 504.15 436.13 C 509.70 439.16 516.68 440.10 520.89 445.22 C 524.58 450.21 522.20 458.20 516.53 460.66 C 509.23 463.96 500.53 462.86 493.47 459.43 C 491.17 458.85 492.61 456.22 492.64 454.62 C 493.30 453.82 493.96 453.02 494.62 452.23 C 497.44 454.19 500.74 455.17 503.95 456.26 C 506.94 456.32 510.12 456.50 512.79 454.90 C 515.52 453.75 515.46 449.45 512.98 448.04 C 506.92 444.03 498.22 443.62 494.20 436.87 C 492.86 433.32 492.67 428.49 495.84 425.81 Z" />
<path fill="#012d54" opacity="1.00" d=" M 203.78 423.43 C 206.28 423.32 208.79 423.29 211.30 423.26 C 211.26 435.94 211.26 448.63 211.29 461.31 C 208.88 461.29 206.47 461.36 204.06 461.15 C 203.78 459.77 203.70 458.39 203.83 456.99 C 203.71 445.80 203.95 434.62 203.78 423.43 Z" />
<path fill="#012d54" opacity="1.00" d=" M 312.35 423.27 C 318.86 423.62 325.49 422.65 331.92 423.91 C 339.02 425.94 341.46 435.01 338.08 441.07 C 336.79 443.24 334.56 444.55 332.52 445.91 C 335.90 450.28 339.39 454.58 342.63 459.05 C 342.29 461.20 338.61 461.68 336.83 462.78 C 332.88 458.02 329.57 452.76 325.76 447.89 C 323.95 446.73 321.46 447.62 319.41 447.35 C 319.43 451.99 319.46 456.63 319.40 461.28 C 317.04 461.28 314.68 461.28 312.33 461.29 C 312.39 448.62 312.33 435.94 312.35 423.27 M 319.42 441.47 C 323.30 441.02 328.66 442.91 331.23 439.01 C 331.90 436.07 332.41 432.15 329.87 429.94 C 326.81 427.87 322.91 429.00 319.48 428.70 C 319.40 432.95 319.43 437.21 319.42 441.47 Z" />
<path fill="#012d54" opacity="1.00" d=" M 393.71 423.29 C 396.08 423.29 398.45 423.31 400.82 423.33 C 400.83 435.98 400.77 448.62 400.86 461.27 C 398.47 461.27 396.08 461.28 393.70 461.30 C 393.75 448.63 393.72 435.96 393.71 423.29 Z" />
<path fill="#012d54" opacity="1.00" d=" M 235.56 505.42 C 240.43 493.11 251.87 483.55 265.01 481.47 C 271.40 480.90 277.93 480.95 284.13 482.74 C 287.58 484.39 291.81 485.29 294.11 488.61 C 291.17 492.46 288.77 496.68 285.85 500.55 C 279.46 495.63 270.32 493.65 263.00 497.71 C 256.86 500.72 253.96 507.51 252.71 513.87 C 252.16 520.52 250.84 527.30 252.20 533.94 C 252.25 541.98 254.20 551.09 261.20 555.99 C 268.95 561.62 280.09 560.04 287.11 553.95 C 287.35 553.89 287.83 553.77 288.07 553.71 C 290.43 557.78 293.79 561.19 295.96 565.38 C 292.35 568.16 288.31 570.33 284.03 571.89 C 282.38 572.28 280.71 572.57 279.05 572.94 C 266.70 575.06 252.66 572.43 243.79 563.02 C 238.15 557.74 234.89 550.55 232.77 543.25 C 230.36 530.72 230.72 517.35 235.56 505.42 Z" />
<path fill="#012d54" opacity="1.00" d=" M 25.19 482.73 C 32.85 482.52 40.53 482.66 48.20 482.69 C 50.66 493.57 53.83 504.27 56.49 515.10 C 58.37 522.72 60.96 530.21 61.87 538.03 C 62.23 538.22 62.95 538.60 63.32 538.79 C 63.69 533.24 65.51 527.95 66.82 522.59 C 70.59 509.29 73.97 495.88 77.79 482.60 C 85.33 482.67 92.87 482.64 100.41 482.63 C 101.45 487.36 101.32 492.22 101.81 497.02 C 104.35 521.82 106.19 546.77 108.68 571.60 C 102.65 571.78 96.62 571.70 90.59 571.64 C 90.26 561.72 89.33 551.83 88.68 541.93 C 88.57 539.59 88.62 537.22 87.95 534.97 C 87.35 528.99 87.73 522.94 87.11 516.98 L 85.91 515.73 C 80.79 534.46 75.28 553.09 69.81 571.72 C 64.52 571.62 59.22 571.84 53.93 571.53 C 50.43 556.59 45.99 541.87 42.10 527.02 C 40.76 522.67 40.04 518.16 38.86 513.78 C 37.75 521.45 37.48 529.19 37.19 536.92 C 36.03 542.23 36.68 547.73 36.04 553.10 C 35.25 559.29 35.51 565.56 34.57 571.74 C 28.76 571.65 22.95 571.69 17.13 571.72 C 17.51 557.73 19.51 543.86 20.56 529.91 C 22.22 514.19 23.25 498.42 25.19 482.73 Z" />
<path fill="#012d54" opacity="1.00" d=" M 121.90 571.66 C 129.72 548.50 138.74 525.75 146.87 502.70 C 152.71 502.57 158.54 502.69 164.38 502.62 C 167.06 509.98 169.46 517.44 172.19 524.78 C 172.33 525.32 172.61 526.38 172.75 526.92 C 176.52 537.16 179.83 547.56 183.51 557.84 C 184.97 562.46 186.91 566.93 187.96 571.68 C 181.88 571.67 175.80 571.80 169.73 571.57 C 168.26 566.85 166.31 562.30 164.88 557.57 C 158.16 557.45 151.44 557.50 144.72 557.53 C 143.29 562.27 141.52 566.91 140.07 571.65 C 134.01 571.73 127.96 571.70 121.90 571.66 M 153.84 521.41 C 153.60 529.48 149.92 536.90 148.77 544.81 C 152.79 544.83 156.81 544.75 160.83 544.73 C 160.77 544.01 160.64 542.58 160.58 541.87 L 160.13 542.39 L 160.21 541.68 C 158.74 535.09 156.90 528.57 156.05 521.87 C 155.32 521.68 154.58 521.53 153.84 521.41 Z" />
<path fill="#012d54" opacity="1.00" d=" M 310.52 503.40 C 316.46 503.26 322.41 503.20 328.35 503.45 C 328.25 511.87 328.36 520.28 328.28 528.69 C 334.30 528.71 340.33 528.81 346.35 528.62 C 346.20 520.17 346.29 511.72 346.29 503.27 C 352.10 503.32 357.91 503.31 363.72 503.28 C 363.75 526.09 363.70 548.91 363.74 571.73 C 357.92 571.68 352.09 571.66 346.27 571.73 C 346.26 562.03 346.30 552.32 346.25 542.62 C 340.30 542.66 334.36 542.68 328.41 542.60 C 328.22 552.24 328.31 561.89 328.36 571.53 C 322.41 571.82 316.46 571.73 310.51 571.61 C 310.60 548.87 310.59 526.13 310.52 503.40 Z" />
<path fill="#012d54" opacity="1.00" d=" M 389.40 503.33 C 395.40 503.31 401.40 503.23 407.39 503.38 C 407.34 520.37 407.29 537.37 407.43 554.36 C 411.59 561.31 423.23 561.20 427.10 554.06 C 427.72 549.71 427.46 545.31 427.50 540.94 C 427.50 528.38 427.50 515.83 427.49 503.28 C 433.44 503.35 439.40 503.25 445.35 503.33 C 445.29 518.89 445.36 534.44 445.31 550.00 C 445.07 554.88 444.80 560.27 441.46 564.17 C 438.22 568.54 433.02 570.67 428.01 572.29 C 417.77 574.10 406.50 573.85 397.32 568.43 C 391.98 565.32 389.57 559.01 389.52 553.07 C 389.30 536.49 389.52 519.91 389.40 503.33 Z" />
<path fill="#012d54" opacity="1.00" d=" M 470.52 503.39 C 476.94 503.20 483.36 503.33 489.78 503.32 C 496.09 516.16 502.86 528.80 508.51 541.94 C 508.28 533.64 508.36 525.34 508.21 517.04 C 507.08 512.59 507.90 507.95 507.58 503.42 C 513.00 503.20 518.43 503.35 523.86 503.28 C 523.86 526.10 523.84 548.91 523.78 571.73 C 517.80 571.60 511.82 571.83 505.85 571.57 C 499.85 556.88 492.07 542.93 486.86 527.93 C 485.75 533.20 486.81 538.66 486.51 544.02 C 487.17 552.01 485.99 560.11 487.20 568.03 C 487.27 568.92 487.42 570.70 487.49 571.59 C 481.83 571.76 476.17 571.76 470.51 571.60 C 470.60 548.87 470.59 526.13 470.52 503.39 Z" />
<path fill="#012d54" opacity="1.00" d=" M 566.07 504.06 C 572.78 501.67 580.06 502.05 587.05 502.60 C 593.30 503.90 599.78 505.96 604.55 510.40 C 601.23 513.58 598.33 517.17 595.10 520.44 C 588.82 515.92 580.49 513.57 572.94 516.03 C 569.24 517.23 566.63 520.51 565.47 524.13 C 563.27 530.50 563.64 537.33 563.78 543.96 C 564.32 549.26 565.49 555.54 570.47 558.50 C 575.25 561.53 581.23 560.78 586.39 559.27 C 586.53 554.90 586.45 550.54 586.54 546.18 C 583.24 545.94 579.94 546.17 576.65 546.32 C 575.56 541.80 574.58 537.23 574.27 532.58 C 584.36 532.71 594.47 532.65 604.57 532.61 C 604.78 543.69 604.72 554.78 604.60 565.87 C 599.17 569.93 592.10 570.99 585.60 572.32 C 579.14 572.57 572.47 573.12 566.20 571.14 C 554.49 567.93 545.84 556.77 544.61 544.85 C 543.87 537.39 544.16 529.63 546.89 522.57 C 550.08 513.97 557.27 506.82 566.07 504.06 Z" />
</g>
</svg>
